<svg width="20" height="22" viewBox="0 0 20 22" fill="none" xmlns="http://www.w3.org/2000/svg">
<path d="M13.6377 0.914062C16.148 0.914188 18.1826 2.96587 18.1826 5.49707V16.4971C18.1826 19.0283 16.148 21.08 13.6377 21.0801H5.45605C2.94568 21.0801 0.910181 19.0283 0.910156 16.4971V5.49707C0.910171 2.96579 2.94567 0.914063 5.45605 0.914062H13.6377ZM14.5469 13.9785C14.1703 13.9785 13.8643 14.2863 13.8643 14.666V18.1035H16.3643C16.7407 18.1035 17.0468 17.7956 17.0469 17.416C17.0469 17.0363 16.7408 16.7285 16.3643 16.7285H15.2285V14.666C15.2285 14.2864 14.9233 13.9787 14.5469 13.9785ZM4.31934 10.5391C3.94278 10.5391 3.6377 10.8469 3.6377 11.2266C3.63788 11.6061 3.94289 11.9141 4.31934 11.9141H10.2285C10.6049 11.914 10.91 11.6061 10.9102 11.2266C10.9102 10.8469 10.605 10.5391 10.2285 10.5391H4.31934ZM4.31934 5.95508C3.94289 5.95508 3.63788 6.26304 3.6377 6.64258C3.6377 7.02227 3.94278 7.33008 4.31934 7.33008H13.8643C14.2408 7.33008 14.5469 7.02227 14.5469 6.64258C14.5467 6.26304 14.2407 5.95508 13.8643 5.95508H4.31934Z" fill="white"/>
<path d="M12.7273 0C16.2419 0 19.091 2.87282 19.091 6.41662V14.0605C18.7245 13.5354 18.2614 13.0842 17.7273 12.733V6.41662C17.7273 3.63221 15.4887 1.37499 12.7273 1.37499H6.36365C3.60222 1.37499 1.36364 3.63221 1.36364 6.41662V15.5832C1.36364 18.3676 3.60222 20.6249 6.36365 20.6249H11.5705C12.2194 21.2421 13.031 21.6866 13.9347 21.8844C13.6478 21.9399 13.3541 21.9765 13.0549 21.9918L12.7273 21.9999H6.36365L6.03606 21.9918C2.67375 21.8199 0 19.0163 0 15.5832V6.41662C2.34283e-07 2.87282 2.84911 1.03349e-07 6.36365 0H12.7273Z" fill="white"/>
<path d="M18.6364 16.9576C18.6364 14.9326 17.0083 13.291 15 13.291C12.9917 13.291 11.3636 14.9326 11.3636 16.9576C11.3636 18.9827 12.9917 20.6243 15 20.6243V21.9993C12.2386 21.9993 10 19.7421 10 16.9576C10 14.1732 12.2386 11.916 15 11.916C17.7614 11.916 20 14.1732 20 16.9576C20 19.7421 17.7614 21.9993 15 21.9993V20.6243C17.0083 20.6243 18.6364 18.9827 18.6364 16.9576Z" fill="#DDEAFD"/>
<path d="M15.0011 12.832C17.2604 12.832 19.092 14.6788 19.092 16.957C19.092 19.2352 17.2604 21.082 15.0011 21.082C12.7417 21.082 10.9102 19.2352 10.9102 16.957C10.9102 14.6788 12.7417 12.832 15.0011 12.832ZM14.5465 13.9779C14.17 13.9779 13.8647 14.2857 13.8647 14.6654V18.1028H16.3647C16.7413 18.1028 17.0465 17.795 17.0465 17.4153C17.0465 17.0356 16.7413 16.7278 16.3647 16.7278H15.2284V14.6654C15.2284 14.2857 14.9231 13.9779 14.5465 13.9779Z" fill="#DDEAFD"/>
</svg>
