<svg width="24" height="24" viewBox="0 0 24 24" fill="none" xmlns="http://www.w3.org/2000/svg">
<path d="M15.8637 6.95898C16.2402 6.95898 16.5455 7.26679 16.5455 7.64648C16.5455 8.02618 16.2402 8.33398 15.8637 8.33398H6.31851C5.94197 8.33398 5.63672 8.02618 5.63672 7.64648C5.63672 7.26679 5.94197 6.95898 6.31851 6.95898H15.8637Z" fill="white"/>
<path d="M12.2274 11.541C12.604 11.541 12.9092 11.8488 12.9092 12.2285C12.9092 12.6082 12.604 12.916 12.2274 12.916H6.31851C5.94197 12.916 5.63672 12.6082 5.63672 12.2285C5.63672 11.8488 5.94197 11.541 6.31851 11.541H12.2274Z" fill="white"/>
<path d="M20.6361 17.9577C20.6361 15.9326 19.0081 14.291 16.9998 14.291C14.9916 14.291 13.3636 15.9326 13.3636 17.9577C13.3636 19.9827 14.9916 21.6243 16.9998 21.6243V22.9993C14.2385 22.9993 12 20.7421 12 17.9577C12 15.1732 14.2385 12.916 16.9998 12.916C19.7612 12.916 21.9997 15.1732 21.9997 17.9577C21.9997 20.7421 19.7612 22.9993 16.9998 22.9993V21.6243C19.0081 21.6243 20.6361 19.9827 20.6361 17.9577Z" fill="white"/>
<path d="M15.8652 15.666C15.8652 15.2863 16.1705 14.9785 16.547 14.9785C16.9236 14.9785 17.2288 15.2863 17.2288 15.666V17.7285H18.3652C18.7417 17.7285 19.0469 18.0363 19.0469 18.416C19.0469 18.7957 18.7417 19.1035 18.3652 19.1035H15.8652V15.666Z" fill="white"/>
<path d="M14.7269 1C18.2413 1 21.0903 3.87284 21.0903 7.41667V15.0606C20.7238 14.5355 20.2608 14.0843 19.7267 13.7331V7.41667C19.7267 4.63223 17.4882 2.375 14.7269 2.375H8.36343C5.6021 2.375 3.36359 4.63223 3.36359 7.41667V16.5833C3.36359 19.3678 5.6021 21.625 8.36343 21.625H13.5701C14.2189 22.2422 15.0306 22.6867 15.9342 22.8845C15.6473 22.9401 15.3536 22.9766 15.0544 22.9919L14.7269 23H8.36343L8.03585 22.9919C4.67365 22.82 2 20.0164 2 16.5833V7.41667C2 3.87284 4.84901 1 8.36343 1H14.7269Z" fill="white"/>
</svg>
